<svg width="24" height="18" viewBox="0 0 24 18" fill="none" xmlns="http://www.w3.org/2000/svg">
<path d="M15.2727 0C14.1154 0 13.0055 0.459739 12.1872 1.27808C11.3688 2.09642 10.9091 3.20633 10.9091 4.36364C10.9091 5.52094 11.3688 6.63085 12.1872 7.44919C13.0055 8.26753 14.1154 8.72727 15.2727 8.72727C16.43 8.72727 17.5399 8.26753 18.3583 7.44919C19.1766 6.63085 19.6364 5.52094 19.6364 4.36364C19.6364 3.20633 19.1766 2.09642 18.3583 1.27808C17.5399 0.459739 16.43 0 15.2727 0ZM15.2727 2.07273C15.5736 2.07273 15.8715 2.13198 16.1494 2.24711C16.4274 2.36224 16.6799 2.53099 16.8926 2.74372C17.1054 2.95645 17.2741 3.209 17.3893 3.48694C17.5044 3.76489 17.5636 4.06279 17.5636 4.36364C17.5636 4.66448 17.5044 4.96238 17.3893 5.24033C17.2741 5.51828 17.1054 5.77082 16.8926 5.98355C16.6799 6.19628 16.4274 6.36503 16.1494 6.48016C15.8715 6.59529 15.5736 6.65455 15.2727 6.65455C14.9719 6.65455 14.674 6.59529 14.396 6.48016C14.1181 6.36503 13.8655 6.19628 13.6528 5.98355C13.4401 5.77082 13.2713 5.51828 13.1562 5.24033C13.0411 4.96238 12.9818 4.66448 12.9818 4.36364C12.9818 3.75605 13.2232 3.17335 13.6528 2.74372C14.0824 2.31409 14.6651 2.07273 15.2727 2.07273ZM3.27273 3.27273V6.54545H0V8.72727H3.27273V12H5.45455V8.72727H8.72727V6.54545H5.45455V3.27273H3.27273ZM15.2727 9.81818C12.36 9.81818 6.54545 11.2691 6.54545 14.1818V17.4545H24V14.1818C24 11.2691 18.1855 9.81818 15.2727 9.81818ZM15.2727 11.8909C18.5127 11.8909 21.9273 13.4836 21.9273 14.1818V15.3818H8.61818V14.1818C8.61818 13.4836 12 11.8909 15.2727 11.8909Z" fill="white"/>
</svg>
