<svg width="24" height="22" viewBox="0 0 24 22" fill="none" xmlns="http://www.w3.org/2000/svg">
<path d="M9.14286 9.14286C11.6686 9.14286 13.7143 7.09714 13.7143 4.57143C13.7143 2.04571 11.6686 0 9.14286 0C6.61714 0 4.57143 2.04571 4.57143 4.57143C4.57143 7.09714 6.61714 9.14286 9.14286 9.14286ZM9.14286 2.28571C9.74907 2.28571 10.3304 2.52653 10.7591 2.95518C11.1878 3.38384 11.4286 3.96522 11.4286 4.57143C11.4286 5.17764 11.1878 5.75902 10.7591 6.18767C10.3304 6.61633 9.74907 6.85714 9.14286 6.85714C7.87429 6.85714 6.85714 5.84 6.85714 4.57143C6.85714 3.30286 7.88571 2.28571 9.14286 2.28571ZM8.30857 18.2857H0V14.8571C0 11.8057 6.09143 10.2857 9.14286 10.2857C10.3314 10.2857 12 10.5257 13.5543 10.9829C12.5714 11.3714 11.6571 11.9086 10.8571 12.5714C10.2857 12.5029 9.71429 12.4571 9.14286 12.4571C5.74857 12.4571 2.17143 14.1257 2.17143 14.8571V16.1143H8.25143C8.22857 16.1714 8.19429 16.2286 8.16 16.2857L7.82857 17.1429L8.16 18C8.20572 18.0914 8.26286 18.1829 8.30857 18.2857ZM17.1429 16C17.7829 16 18.2857 16.5029 18.2857 17.1429C18.2857 17.7829 17.7829 18.2857 17.1429 18.2857C16.5029 18.2857 16 17.7829 16 17.1429C16 16.5029 16.5029 16 17.1429 16ZM17.1429 12.5714C14.0229 12.5714 11.36 14.4686 10.2857 17.1429C11.36 19.8171 14.0229 21.7143 17.1429 21.7143C20.2629 21.7143 22.9257 19.8171 24 17.1429C22.9257 14.4686 20.2629 12.5714 17.1429 12.5714ZM17.1429 20C16.3851 20 15.6584 19.699 15.1226 19.1632C14.5867 18.6273 14.2857 17.9006 14.2857 17.1429C14.2857 16.3851 14.5867 15.6584 15.1226 15.1226C15.6584 14.5867 16.3851 14.2857 17.1429 14.2857C17.9006 14.2857 18.6273 14.5867 19.1632 15.1226C19.699 15.6584 20 16.3851 20 17.1429C20 17.9006 19.699 18.6273 19.1632 19.1632C18.6273 19.699 17.9006 20 17.1429 20Z" fill="white"/>
</svg>
