<svg width="24" height="21" viewBox="0 0 24 21" fill="none" xmlns="http://www.w3.org/2000/svg">
<path d="M8.90946 1.25754V1.73541C7.8657 1.32042 6.74648 1.10664 5.62727 1.10664C3.84156 1.10664 2.05584 1.64738 0.534213 2.72887C-0.107135 3.18159 -0.182588 4.0996 0.370732 4.65292L3.60262 7.88481H4.9985V9.28068C6.07999 10.3622 7.48844 10.9281 8.90946 10.9909V13.833H6.39437C5.70272 13.833 5.13683 14.3989 5.13683 15.0905V17.6056C5.13683 18.9889 6.26862 20.1207 7.65192 20.1207H20.2274C22.3149 20.1207 24 18.4356 24 16.3481V1.25754C24 0.565895 23.4341 0 22.7425 0H10.167C9.47536 0 8.90946 0.565895 8.90946 1.25754ZM7.51359 8.06086V5.35714H4.64638L3.33854 4.04929C4.06897 3.76832 4.84466 3.62342 5.62727 3.62173C7.31238 3.62173 8.88431 4.27565 10.079 5.45775L11.8521 7.23088L11.6006 7.48239C11.2847 7.80139 10.9086 8.05456 10.4941 8.22725C10.0797 8.39993 9.63511 8.48871 9.18612 8.48843C8.59508 8.48843 8.01661 8.33752 7.51359 8.06086ZM21.4849 16.3481C21.4849 17.0397 20.919 17.6056 20.2274 17.6056C19.5357 17.6056 18.9698 17.0397 18.9698 16.3481V15.0905C18.9698 14.3989 18.4039 13.833 17.7123 13.833H11.4246V10.576C12.1414 10.2867 12.8079 9.85915 13.3863 9.28068L13.6378 9.02917L17.1967 12.5754H18.9698V10.8023L11.4246 3.29477V2.51509H21.4849V16.3481Z" fill="white"/>
</svg>
