<svg width="100" height="36" viewBox="0 0 100 36" fill="none" xmlns="http://www.w3.org/2000/svg">
<g clip-path="url(#clip0_305_236)">
<path d="M7.12237 0C7.41332 0 7.66368 0.0972661 7.8775 0.309361C8.08996 0.521455 8.1874 0.772727 8.1874 1.06318V4.38644C8.1874 4.71471 8.08996 4.98489 7.8775 5.19834C7.66503 5.41044 7.41332 5.50771 7.12237 5.50771H6.48362V23.0304C6.48362 23.3979 6.34829 23.7073 6.07762 23.9775C5.80696 24.2477 5.47812 24.3828 5.12897 24.3828H1.35464C0.986545 24.3828 0.676645 24.2477 0.405987 23.9775C0.135329 23.7073 0 23.379 0 23.0304V1.35227C0 0.984821 0.135329 0.676811 0.405987 0.405276C0.676645 0.133741 1.00549 0 1.35464 0H7.12237Z" fill="white"/>
<path d="M12.3082 18.8359V5.56444C12.3082 5.23617 12.4435 4.90789 12.6952 4.57963L16.8566 0.387714C17.1083 0.135092 17.4371 0 17.8431 0H30.1703C30.4991 0 30.8279 0.135092 31.1568 0.386363L35.4143 4.67554C35.666 5.00381 35.8013 5.33208 35.8013 5.66036V8.24872C35.8013 8.61617 35.666 8.92554 35.3953 9.19571C35.1246 9.46589 34.7958 9.60098 34.4466 9.60098H30.6723C30.3042 9.60098 29.9943 9.46589 29.7237 9.19571C29.453 8.92554 29.3177 8.59726 29.3177 8.24872V7.76509C29.3177 7.43682 29.1823 7.10855 28.9306 6.78027L28.0023 5.91028C27.7696 5.65901 27.461 5.52391 27.0739 5.52391H21.1127C20.7256 5.52391 20.3968 5.65901 20.1262 5.91028L19.2546 6.78027C19.0029 7.03155 18.8676 7.35981 18.8676 7.76509V16.6514C18.8676 17.0378 19.0029 17.3661 19.2546 17.6363L20.1262 18.5063C20.4171 18.7967 20.746 18.9507 21.1127 18.9507H27.0739C27.461 18.9507 27.7709 18.7967 28.0023 18.5063L28.9306 17.6363C29.1823 17.308 29.3177 16.9797 29.3177 16.6514V16.1679C29.3177 15.8004 29.453 15.491 29.7237 15.2208C29.9943 14.9506 30.3232 14.8155 30.6723 14.8155H34.4466C34.8147 14.8155 35.1246 14.9506 35.3953 15.2208C35.666 15.491 35.8013 15.8193 35.8013 16.1679V18.7562C35.8013 19.1425 35.666 19.4708 35.4143 19.741L31.1568 24.0302C30.8279 24.2814 30.4991 24.4165 30.1703 24.4165H17.8229C17.4358 24.4165 17.107 24.2814 16.8362 24.0302L12.6749 19.8383C12.4246 19.5505 12.3082 19.2222 12.3082 18.8359Z" fill="white"/>
<path d="M63.3029 18.9318C64.0188 18.9318 64.3868 19.2992 64.3868 20.0139V23.3372C64.3868 23.6276 64.2894 23.8775 64.0959 24.091C63.9023 24.3031 63.6317 24.4003 63.3218 24.4003H57.8058C57.5351 24.4003 57.3213 24.3031 57.1278 24.1099C56.9343 23.9167 56.8368 23.6843 56.8368 23.4331V23.1818C56.8368 22.8914 56.7394 22.6604 56.5662 22.4672C56.3916 22.2929 56.1602 22.197 55.9085 22.197C55.6378 22.197 55.424 22.2942 55.2304 22.4874L53.528 24.149C53.2953 24.3031 53.0638 24.4003 52.85 24.4003H44.2959C44.0442 24.4003 43.8317 24.3031 43.6571 24.1099L39.6311 20.149C39.4376 19.995 39.3402 19.7815 39.3402 19.5114V14.6818C39.3402 14.4306 39.4376 14.1982 39.6311 14.005L43.5989 10.1022C43.7532 9.90905 43.9671 9.81173 44.2377 9.81173H55.3265C55.5783 9.81173 55.8111 9.71449 55.9843 9.52128C56.1588 9.32816 56.2549 9.09574 56.2549 8.84449V7.14774C56.2549 6.91538 56.1778 6.68437 56.0032 6.47092L55.0166 5.4861C54.7838 5.3321 54.5525 5.23483 54.3387 5.23483H47.7779C47.487 5.23483 47.2555 5.3321 47.0999 5.52528L46.1715 6.45201C46.0172 6.60601 45.9198 6.83838 45.9198 7.12883C45.9198 7.38009 45.8224 7.61245 45.6099 7.80564C45.3975 7.99882 45.1647 8.09608 44.894 8.09608H40.5013C40.2496 8.09608 40.0168 7.99882 39.8233 7.80564C39.6297 7.61245 39.5323 7.38009 39.5323 7.12883V5.71846C39.5323 5.39019 39.6284 5.15782 39.8233 5.04165L44.526 0.308026C44.6802 0.114845 44.9129 0.0175781 45.2039 0.0175781H56.9897C57.2414 0.0175781 57.4742 0.114845 57.6678 0.308026L62.3704 5.04165C62.5639 5.17674 62.6613 5.4091 62.6613 5.71846V18.9521H63.3002V18.9318H63.3029ZM56.2576 15.6099V15.3586C56.2576 15.1074 56.1602 14.875 55.987 14.6818C55.8124 14.4886 55.581 14.3914 55.3293 14.3914H47.4531C47.2014 14.3914 46.9687 14.4886 46.7751 14.6818L46.0011 15.4546C45.8075 15.6477 45.7101 15.8599 45.7101 16.0922V17.7538C45.7101 18.0051 45.8075 18.2374 46.0011 18.4307L46.679 19.1074C46.8726 19.3007 47.1054 19.3979 47.3571 19.3979H52.3506C52.6024 19.3979 52.8352 19.3007 53.0287 19.1074L55.9707 16.2678C56.1615 16.0922 56.2576 15.8801 56.2576 15.6099Z" fill="white"/>
<path d="M98.6848 1.48727C97.8089 0.54027 96.6928 0.0769043 95.4178 0.0769043H78.7453H75.3187C74.0236 0.0769043 72.8882 0.54027 71.9125 1.48727L67.9879 5.27389C67.0122 6.22089 66.5331 7.24488 66.5331 8.34588V16.3636C66.5331 17.6388 67.0108 18.721 67.9879 19.6666L71.3941 22.9696C72.3699 23.9166 73.5053 24.38 74.8004 24.38H78.7046H80.537C81.832 24.38 82.9675 23.9166 83.9432 22.9696L98.5455 9.27258C99.5205 8.32562 100 7.22463 100 5.96962V4.79162C100.021 3.55417 99.5821 2.43426 98.6848 1.48727Z" fill="#1EF97C"/>
<path d="M36.8352 32.5968C37.0706 32.9048 37.1884 33.283 37.1884 33.7329C37.1884 34.3692 36.9407 34.8582 36.4454 35.2013C35.9502 35.5431 35.2275 35.7147 34.2788 35.7147H30.5167V28.4521H34.0704C34.9568 28.4521 35.6375 28.6224 36.1125 28.9601C36.5875 29.2992 36.8244 29.7585 36.8244 30.3394C36.8244 30.692 36.7391 31.0068 36.5699 31.2837C36.3995 31.5606 36.1626 31.7781 35.8581 31.9375C36.2736 32.0699 36.5997 32.2888 36.8352 32.5968ZM32.1894 29.718V31.4296H33.862C34.2775 31.4296 34.5928 31.3566 34.8079 31.2121C35.0218 31.0675 35.13 30.8528 35.13 30.569C35.13 30.2854 35.0218 30.0733 34.8079 29.9314C34.5928 29.7896 34.2775 29.7193 33.862 29.7193H32.1894V29.718ZM35.1571 34.2301C35.3818 34.0855 35.4941 33.8599 35.4941 33.5559C35.4941 32.9547 35.0475 32.6535 34.1543 32.6535H32.1894V34.4489H34.1543C34.5969 34.4489 34.9311 34.376 35.1571 34.2301Z" fill="#818181"/>
<path d="M44.1308 34.1582H40.7529L40.1088 35.7144H38.3834L41.6258 28.4519H43.2877L46.541 35.7144H44.7736L44.1308 34.1582ZM43.6016 32.8815L42.4487 30.1014L41.2956 32.8815H43.6016Z" fill="#818181"/>
<path d="M54.8462 28.4519V35.7144H53.4644L49.8376 31.305V35.7144H48.1757V28.4519H49.5683L53.1843 32.8613V28.4519H54.8462Z" fill="#818181"/>
<path d="M60.0942 32.8612L59.1171 33.8771V35.713H57.4445V28.4504H59.1171V31.8427L62.3393 28.4504H64.2096L61.1958 31.6873L64.3869 35.713H62.4219L60.0942 32.8612Z" fill="#818181"/>
</g>
<defs>
<clipPath id="clip0_305_236">
<rect width="100" height="35.7143" fill="white"/>
</clipPath>
</defs>
</svg>
