<svg width="24" height="15" viewBox="0 0 24 15" fill="none" xmlns="http://www.w3.org/2000/svg">
<path d="M12 3.2C11.2089 3.2 10.4355 3.4346 9.77772 3.87412C9.11992 4.31365 8.60723 4.93836 8.30448 5.66927C8.00173 6.40017 7.92252 7.20444 8.07686 7.98036C8.2312 8.75629 8.61216 9.46902 9.17157 10.0284C9.73098 10.5878 10.4437 10.9688 11.2196 11.1231C11.9956 11.2775 12.7998 11.1983 13.5307 10.8955C14.2616 10.5928 14.8864 10.0801 15.3259 9.42228C15.7654 8.76448 16 7.99112 16 7.2C16 6.13913 15.5786 5.12172 14.8284 4.37157C14.0783 3.62143 13.0609 3.2 12 3.2ZM12 9.6C11.5253 9.6 11.0613 9.45924 10.6666 9.19553C10.272 8.93181 9.96434 8.55698 9.78269 8.11844C9.60104 7.6799 9.55351 7.19734 9.64612 6.73178C9.73872 6.26623 9.9673 5.83859 10.3029 5.50294C10.6386 5.1673 11.0662 4.93872 11.5318 4.84611C11.9973 4.75351 12.4799 4.80104 12.9184 4.98269C13.357 5.16434 13.7318 5.47195 13.9955 5.86663C14.2592 6.26131 14.4 6.72532 14.4 7.2C14.4 7.83652 14.1471 8.44697 13.6971 8.89706C13.247 9.34714 12.6365 9.6 12 9.6ZM23.2 0H0.8C0.587827 0 0.384344 0.0842856 0.234315 0.234315C0.0842854 0.384344 0 0.587827 0 0.8V13.6C0 13.8122 0.0842854 14.0157 0.234315 14.1657C0.384344 14.3157 0.587827 14.4 0.8 14.4H23.2C23.4122 14.4 23.6157 14.3157 23.7657 14.1657C23.9157 14.0157 24 13.8122 24 13.6V0.8C24 0.587827 23.9157 0.384344 23.7657 0.234315C23.6157 0.0842856 23.4122 0 23.2 0ZM18.565 12.8H5.435C5.16641 11.8916 4.67481 11.0648 4.00498 10.395C3.33516 9.72519 2.5084 9.23359 1.6 8.965V5.435C2.5084 5.1664 3.33516 4.67481 4.00498 4.00498C4.67481 3.33516 5.16641 2.5084 5.435 1.6H18.565C18.8336 2.5084 19.3252 3.33516 19.995 4.00498C20.6648 4.67481 21.4916 5.1664 22.4 5.435V8.965C21.4916 9.23359 20.6648 9.72519 19.995 10.395C19.3252 11.0648 18.8336 11.8916 18.565 12.8ZM22.4 3.737C21.4404 3.32448 20.6755 2.55962 20.263 1.6H22.4V3.737ZM3.737 1.6C3.32448 2.55962 2.55962 3.32448 1.6 3.737V1.6H3.737ZM1.6 10.663C2.55962 11.0755 3.32448 11.8404 3.737 12.8H1.6V10.663ZM20.263 12.8C20.6755 11.8404 21.4404 11.0755 22.4 10.663V12.8H20.263Z" fill="white"/>
</svg>
