<svg width="24" height="23" viewBox="0 0 24 23" fill="none" xmlns="http://www.w3.org/2000/svg">
<path d="M12 11.6129C10.8516 11.6129 9.72897 11.2724 8.77411 10.6343C7.81924 9.99632 7.07501 9.08948 6.63554 8.02849C6.19606 6.9675 6.08107 5.80001 6.30512 4.67367C6.52916 3.54733 7.08217 2.51272 7.89422 1.70067C8.70627 0.888626 9.74088 0.335615 10.8672 0.111572C11.9936 -0.112471 13.161 0.00251585 14.222 0.441992C15.283 0.881469 16.1899 1.6257 16.8279 2.58056C17.4659 3.53543 17.8065 4.65805 17.8065 5.80645C17.8065 7.34642 17.1947 8.82331 16.1058 9.91224C15.0169 11.0012 13.54 11.6129 12 11.6129ZM12 2.32258C11.311 2.32258 10.6374 2.52691 10.0645 2.90972C9.49154 3.29253 9.04501 3.83664 8.78132 4.47323C8.51764 5.10983 8.44864 5.81032 8.58307 6.48612C8.7175 7.16193 9.0493 7.78269 9.53653 8.26992C10.0238 8.75715 10.6445 9.08896 11.3203 9.22338C11.9961 9.35781 12.6966 9.28882 13.3332 9.02513C13.9698 8.76145 14.5139 8.31491 14.8967 7.74199C15.2795 7.16907 15.4839 6.4955 15.4839 5.80645C15.4839 4.88247 15.1168 3.99634 14.4635 3.34299C13.8101 2.68963 12.924 2.32258 12 2.32258ZM22.8387 22.4516C22.532 22.4476 22.2389 22.324 22.022 22.107C21.8051 21.8901 21.6814 21.5971 21.6774 21.2903C21.6774 18.271 20.0361 16.2581 12 16.2581C3.96387 16.2581 2.32258 18.271 2.32258 21.2903C2.32258 21.5983 2.20023 21.8937 1.98245 22.1115C1.76466 22.3293 1.46928 22.4516 1.16129 22.4516C0.853297 22.4516 0.557918 22.3293 0.340134 22.1115C0.12235 21.8937 0 21.5983 0 21.2903C0 13.9355 8.40774 13.9355 12 13.9355C15.5923 13.9355 24 13.9355 24 21.2903C23.996 21.5971 23.8724 21.8901 23.6554 22.107C23.4385 22.324 23.1455 22.4476 22.8387 22.4516Z" fill="white"/>
</svg>
